<svg viewBox="0 0 1346 1024" fill="none" aspectRatio="xMidMax meet">
                        <path d="M2 1.5C25.3333 8.16667 78.2 35.5 103 91.5C127.8 147.5 129.333 188.5 127 202C133.167 222.167 151.7 265.1 176.5 275.5C207.5 288.5 275 284.5 286.5 286.5C298 288.5 346.5 291.5 371.5 318.5C396.5 345.5 395.5 345.5 399.5 356C403.5 366.5 410.5 396.5 405 405C399.5 413.5 406 452.5 445 444C484 435.5 481.5 422.5 481.5 417C481.5 411.5 469.5 393.5 504 379.5C538.5 365.5 557 370.5 560 351.5C563 332.5 556 326.5 567.5 318.5C579 310.5 582.5 305 592.5 291.5C602.5 278 620 258.5 626 254.5C632 250.5 647.5 240 648.5 239.5C649.5 239 700.5 215.5 724 210C747.5 204.5 802 175 805 173C808 171 834 148.5 838 143C842 137.5 849.5 129 854 118.5C858.5 108 859.5 92 859 86.5C858.5 81 855 74.5 846.5 72.5C838 70.5 818 76.5 813 81.5C808 86.5 803 90 797 99.5C791 109 784 127 782 137C780 147 773 172.5 770.5 176.5C768 180.5 765.5 192 760.5 198.5C755.5 205 743 220.5 741 222C739 223.5 727 235 725.5 235.5C724 236 712.5 244.5 710 245C707.5 245.5 700.5 251 692.5 251C684.5 251 685.5 251 683 249.5C680.5 248 678 238 679.5 233.5C681 229 680.5 217 692.5 206C702.1 197.2 710.5 192.333 713.5 191C725 185.833 748.5 175.4 750.5 175C753 174.5 782.5 162 792.5 151C802.5 140 851 95.5 851 88C851 80.5 889 23 903 26.5C917 30 916 26.5 931 49.5C946 72.5 997.5 203.5 1006.5 210C1015.5 216.5 1032 297 1116 239.5C1200 182 1176 167 1269 175C1362 183 1342.5 285.5 1330 318.5C1317.5 351.5 1151 485.5 1116 473C1081 460.5 1029.5 508 1066.5 545.5C1103.5 583 1110.5 610.5 1066.5 614.5C1022.5 618.5 967.5 629 948.5 646.5C933.3 660.5 919.833 672.667 915 677C910.833 679.667 900.9 685.1 894.5 685.5C886.5 686 874.5 683 870.5 680C866.5 677 858 671.5 857.5 659C857.1 649 864 646.5 867.5 646.5C870.333 646.333 876.2 647.8 877 655C878 664 878.5 674 876 680.5C873.5 687 869.5 692 868.5 692.5C867.5 693 858 698 851.5 692.5C845 687 842.5 683 844.5 677C846.5 671 847.5 665.5 850.5 663.5C853.5 661.5 854.5 663.5 854.5 665C854.5 666.5 855 671.5 851.5 678C848 684.5 846 690.5 842.5 693.5C839 696.5 836 699.5 833 699C830 698.5 826.5 693 825.5 689C824.7 685.8 824.833 678 825 674.5C825.833 662 829.3 634.3 836.5 623.5C843.7 612.7 845.5 616 845.5 619C846 624.5 843.3 634.6 840.5 643C836.167 655.667 827.1 681.8 825.5 685C823.5 689 819.5 698 817 701C814.5 704 812 706 809.5 705.5C807 705 806.5 705 805 702.5C803.5 700 801.5 693 801 690C800.5 687 799.5 668.5 802.5 659C805.5 649.5 810 624 817.5 622C825 620 809.5 670.5 806.5 677C803.5 683.5 794.5 705 787 710C779.5 715 771 717.5 767 708C763 698.5 760 688 773.5 672C787 656 788.5 674.5 788 677C787.5 679.5 786.5 683 784.5 684.5C782.5 686 755 718.5 752.5 733.5C750 748.5 744.5 682.5 744.5 678.5C744.5 674.5 743 636.5 756 632C769 627.5 755 669.5 747.5 676C740 682.5 735.5 685 730.5 687C725.5 689 706 695.5 703.5 696.5C701 697.5 673.5 705.5 671.5 731.5C669.9 752.3 683.5 753.167 690.5 751C697.167 748 711.2 736.7 714 715.5C717.5 689 717.5 685 716.5 674C715.5 663 713 642 705 640C697 638 691.5 633 683.5 642.5C675.5 652 675 675.5 680 686C685 696.5 688.5 671.5 681 668C673.5 664.5 662 660 644 668C626 676 604 699 597.5 700C591 701 582.5 714 540 711C497.5 708 457.5 525 389 545.5C320.5 566 196 433 149.5 532.5C103 632 124.5 697.5 199.5 731.5C274.5 765.5 328.5 717 324.5 659C320.5 601 273.819 575 199.5 603.5C125.181 632 127 717.5 127 765.5C127 813.5 174.5 901 303.5 878C432.5 855 533.5 713.5 671.5 830C809.5 946.5 720.5 1015 644 1063C567.5 1111 395.608 1042.5 567.5 980C739.392 917.5 1046 867.5 1198 946.5C1319.6 1009.7 1336.67 1040.83 1330 1048.5" stroke="#E86ACD" stroke-width="10"/>
                        </svg>