<svg width="440" height="956" viewBox="0 0 440 956" fill="none" xmlns="http://www.w3.org/2000/svg">
<g clip-path="url(#clip0_2_2)">
<rect width="440" height="956" fill="white"/>
<path d="M3.41636 41.7724C53.3368 15.7856 145.543 -5.10379 115.003 119.233C76.8287 274.654 -85.937 418.581 67.5997 405.088C221.136 391.594 254.277 262.66 334.401 291.645C414.526 320.63 469.48 459.56 422.915 577.5C376.351 695.44 259.311 647.964 263.086 585.496C266.862 523.028 351.181 488.545 360.83 544.017C370.478 599.489 348.245 646.465 310.909 685.445C273.574 724.425 177.928 836.368 44.1078 772.9C-89.7125 709.433 15.1623 603.986 31.5228 614.981C47.8833 625.975 136.398 616.98 94.4477 740.917C32.6974 888.841 82.422 934.152 115.003 938.316C147.025 954.475 218.955 969.6 250.501 900.835" stroke="#AD79E5" stroke-width="20"/>
</g>
<defs>
<clipPath id="clip0_2_2">
<rect width="440" height="956" fill="white"/>
</clipPath>
</defs>
</svg>

